<svg version="1.1" id="Layer_1" xmlns="http://www.w3.org/2000/svg" xmlns:xlink="http://www.w3.org/1999/xlink" x="0px" y="0px" viewBox="0 0 1200 1200" enable-background="new 0 0 1200 1200" xml:space="preserve">
<g>
	<g>
		<path fill="none" d="M919.867,824.527v23.515h83.26c14.651,0,26.571-10.986,26.571-24.49V717.54H925.744
			c-0.141,3.414-0.269,6.536-0.373,9.244c-1.068,27.739-24.811,65.045-37.114,82.605h16.472
			C913.09,809.389,919.867,816.166,919.867,824.527z"></path>
		<path fill="none" d="M738.212,809.389h18.297c-24.238-18.177-66.623-53.527-70.897-81.305c-0.465-3.018-0.888-6.583-1.272-10.544
			h-558.73v106.012c0,13.504,11.92,24.49,26.571,24.49h331.642c0.006,0,0.011-0.001,0.017-0.001h172.981
			c0.006,0,0.011,0.001,0.017,0.001h66.234v-23.515C723.074,816.166,729.852,809.389,738.212,809.389z M572.59,808.577
			c-15.004,0-27.167-12.163-27.167-27.168c0-15.004,12.163-27.167,27.167-27.167c15.004,0,27.168,12.163,27.168,27.167
			C599.757,796.414,587.594,808.577,572.59,808.577z"></path>
		<path fill="#000000" d="M660.243,461.654c8.078-3.196,12.119-10.065,12.119-20.607c0-15.207-9.555-22.811-28.658-22.811h-27.515
			c-2.186,0-4.086,0.476-5.701,1.426c-1.618,0.951-2.424,2.248-2.424,3.888v84.244c0,1.383,0.759,2.592,2.28,3.63
			c1.518,1.036,3.467,1.555,5.844,1.555h30.226c8.743,0,15.68-2.181,20.812-6.545c5.135-4.363,7.699-11.341,7.699-20.932v-2.721
			c0-6.046-1.237-10.648-3.708-13.803C668.748,465.823,665.091,463.383,660.243,461.654z M626.456,433.011h15.824
			c3.611,0,6.436,0.973,8.482,2.916c2.043,1.945,3.066,4.601,3.066,7.972c0,3.456-0.976,6.178-2.922,8.164
			c-1.949,1.989-4.777,2.982-8.482,2.982h-15.967V433.011z M656.395,484.075c0,9.42-4.613,14.128-13.831,14.128h-16.108v-29.939
			h16.108c4.563,0,8.007,1.082,10.337,3.24c2.327,2.16,3.494,5.66,3.494,10.497V484.075z"></path>
		<path fill="#000000" d="M709.854,484.075v-60.655c0-1.728-0.903-3.023-2.708-3.889c-1.805-0.862-3.992-1.295-6.559-1.295
			c-2.565,0-4.751,0.434-6.556,1.295c-1.808,0.866-2.708,2.162-2.708,3.889v60.655c0,10.284,3.11,17.801,9.338,22.552
			c6.222,4.754,14.517,7.129,24.877,7.129c2.518,0,4.909-0.148,7.184-0.431V497.91c-2.036,0.698-4.414,1.071-7.184,1.071
			C715.08,498.98,709.854,494.013,709.854,484.075z"></path>
		<path fill="#000000" d="M757.044,419.531c-1.805-0.862-3.992-1.295-6.556-1.295c-2.567,0-4.754,0.434-6.559,1.295
			c-1.805,0.866-2.708,2.162-2.708,3.889v9.013c4.169-4.695,10.177-8.236,18.532-8.958v-0.056
			C759.752,421.693,758.85,420.397,757.044,419.531z"></path>
		<path fill="#000000" d="M803.094,475.004v32.66c0,1.643,0.926,2.938,2.778,3.888c1.855,0.953,4.015,1.426,6.489,1.426
			c2.565,0,4.751-0.473,6.556-1.426c1.805-0.95,2.708-2.245,2.708-3.888v-32.66c0-0.604,0.19-1.167,0.572-1.685l29.367-46.399
			c0.287-0.432,0.428-0.994,0.428-1.685c0-1.899-1.354-3.542-4.062-4.925c-2.708-1.38-5.443-2.074-8.198-2.074
			c-2.377,0-4.229,1.124-5.56,3.371l-21.812,37.455l-21.671-37.455c-1.237-2.247-3.136-3.371-5.704-3.371
			c-2.758,0-5.49,0.693-8.198,2.074c-2.49,1.272-3.78,2.774-3.98,4.482c13.976,4.451,19.389,18.1,19.441,27.847v4.303l10.416,16.377
			C802.951,473.665,803.094,474.226,803.094,475.004z"></path>
		<path fill="#000000" d="M1003.127,222.02H152.182c-22.925,0-41.578,17.717-41.578,39.495v562.036
			c0,21.778,18.652,39.497,41.578,39.497h322.206l-25.697,110.241H337.291c-4.144,0-7.503,3.359-7.503,7.503
			c0,4.144,3.359,7.503,7.503,7.503h117.356h231.37H810.65c4.144,0,7.503-3.359,7.503-7.503c0-4.144-3.359-7.503-7.503-7.503
			H691.972l-25.697-110.241h56.798v-15.006h-66.234c-0.006,0-0.011-0.001-0.017-0.001H483.842c-0.006,0-0.011,0.001-0.017,0.001
			H152.182c-14.652,0-26.571-10.986-26.571-24.49V717.54h558.73c0.384,3.961,0.807,7.525,1.272,10.544
			c4.273,27.779,46.658,63.128,70.897,81.305h25.568c-0.343-0.347-0.721-0.667-1.14-0.951
			c-21.041-14.235-76.523-56.83-80.494-82.636c-3.79-24.644-4.895-88.998-0.829-121.044c0.554-4.386,3.716-6.997,6.486-7.978
			c1.536-0.544,5.463-1.455,8.869,1.807c13.382,12.834,17.154,41.941,17.752,59.654v9.93c0,4.081,3.262,7.415,7.345,7.502
			c4.018,0.101,7.48-3.107,7.656-7.182c0.023-0.567,0.161-4.251,0.006-9.842V454.652c0.176-3.033,1.715-16.344,15.147-16.344
			c13.051,0,14.3,11.071,14.37,14.369V580.68h15.006v-2.447c0-9.433,1.442-15.604,4.285-18.339c1.342-1.291,4.03-2.965,11.961-2.66
			c11.759,0.46,13.722,21.352,13.737,21.544c0.255,3.514,2.922,6.378,6.41,6.882c3.526,0.489,6.858-1.493,8.098-4.789
			c4.3-11.454,10.308-13.482,19.285-13.097c3.599,0.152,11.677,11.445,11.621,32.701c-0.012,0.591-0.021,1.191-0.021,1.8
			c0,4.112,3.309,7.458,7.421,7.503c0.029,0,0.056,0,0.085,0c4.074,0,7.409-3.256,7.497-7.34c0.015-0.561,0.021-1.122,0.023-1.679
			c0.355-13.003,5.305-21.453,13.711-23.281c6.592-1.436,13.037,1.593,14.684,5.208c4.859,10.635,1.263,96.853-0.091,129.311
			c-0.229,5.422-0.428,10.235-0.58,14.212c-1.152,29.928-36.019,77.028-40.67,83.181h18.55
			c12.303-17.56,36.046-54.866,37.114-82.605c0.104-2.708,0.232-5.83,0.373-9.244h103.955v106.012
			c0,13.504-11.92,24.49-26.571,24.49h-83.26v15.006h83.26c22.925,0,41.578-17.719,41.578-39.497V261.516
			C1044.705,239.738,1026.053,222.02,1003.127,222.02z M489.797,863.048h161.07l25.698,110.241H464.099L489.797,863.048z
			 M869.782,559.257c-3.796-3.917-8.235-6.269-13.125-6.474c-6.819-0.29-15.475,0.427-22.931,6.474h-1.317
			c-4.201-8.862-11.489-16.553-23.326-17.017c-4.739-0.193-11.073-0.007-16.832,2.67v-3.623v-84.345v-4.303
			c-0.051-9.747-5.465-23.396-19.441-27.847c-2.932-0.934-6.217-1.49-9.936-1.49c-1.087,0-2.105,0.086-3.121,0.174
			c-8.354,0.722-14.363,4.262-18.532,8.958c-6.012,6.771-8.27,15.858-8.5,22.023v43.452v15.416v27.962v17.97H530.809
			c-8.749,0-15.868-7.118-15.868-15.868v-157.32c0-8.75,7.119-15.868,15.868-15.868h392.264c8.749,0,15.868,7.118,15.868,15.868
			v157.32c0,8.75-7.119,15.868-15.868,15.868H869.782z M1029.699,702.533H926.361c2.804-69.755,3.386-115.031-1.664-126.084
			c-0.349-0.763-0.759-1.494-1.2-2.208c16.826-0.23,30.45-13.971,30.45-30.853v-157.32c0-17.024-13.851-30.874-30.874-30.874
			H530.809c-17.023,0-30.874,13.85-30.874,30.874v157.32c0,17.024,13.851,30.874,30.874,30.874h201.912v22.596
			c-2.14-3.357-4.581-6.432-7.365-9.102c-6.436-6.175-15.739-8.142-24.259-5.125c-8.916,3.154-15.188,10.909-16.372,20.238
			c-3.217,25.369-3.362,68.663-1.528,99.663H125.611V261.516c0-13.504,11.92-24.489,26.571-24.489h850.945
			c14.651,0,26.571,10.985,26.571,24.489V702.533z"></path>
		<path fill="#000000" d="M452.648,348.942H294.975c-4.144,0-7.503,3.359-7.503,7.503c0,4.144,3.359,7.503,7.503,7.503h157.673
			c4.144,0,7.503-3.359,7.503-7.503C460.151,352.301,456.792,348.942,452.648,348.942z"></path>
		<path fill="#000000" d="M294.975,412.326h91.558c4.144,0,7.503-3.359,7.503-7.503c0-4.144-3.359-7.503-7.503-7.503h-91.558
			c-4.144,0-7.503,3.359-7.503,7.503C287.472,408.967,290.831,412.326,294.975,412.326z"></path>
		<path fill="#000000" d="M294.975,509.079h91.558c4.144,0,7.503-3.359,7.503-7.503s-3.359-7.503-7.503-7.503h-91.558
			c-4.144,0-7.503,3.359-7.503,7.503S290.831,509.079,294.975,509.079z"></path>
		<path fill="#000000" d="M452.648,445.697H294.975c-4.144,0-7.503,3.359-7.503,7.503c0,4.144,3.359,7.503,7.503,7.503h157.673
			c4.144,0,7.503-3.359,7.503-7.503C460.151,449.056,456.792,445.697,452.648,445.697z"></path>
		<path fill="#000000" d="M419.107,588.478H294.975c-4.144,0-7.503,3.359-7.503,7.503s3.359,7.503,7.503,7.503h124.132
			c4.144,0,7.503-3.359,7.503-7.503S423.251,588.478,419.107,588.478z"></path>
		<path fill="#000000" d="M294.975,555.107h91.558c4.144,0,7.503-3.359,7.503-7.503c0-4.144-3.359-7.503-7.503-7.503h-91.558
			c-4.144,0-7.503,3.359-7.503,7.503C287.472,551.748,290.831,555.107,294.975,555.107z"></path>
		<path fill="#000000" d="M250.3,348.025h-45.745c-2.805,0-5.079,2.274-5.079,5.078v45.745c0,2.805,2.274,5.079,5.079,5.079H250.3
			c2.805,0,5.079-2.274,5.079-5.079v-45.745C255.379,350.299,253.105,348.025,250.3,348.025z"></path>
		<path fill="#000000" d="M250.3,445.674h-45.745c-2.805,0-5.079,2.274-5.079,5.078v45.745c0,2.805,2.274,5.079,5.079,5.079H250.3
			c2.805,0,5.079-2.274,5.079-5.079v-45.745C255.379,447.948,253.105,445.674,250.3,445.674z"></path>
		<path fill="#000000" d="M250.3,543.841h-45.745c-2.805,0-5.079,2.274-5.079,5.079v45.745c0,2.805,2.274,5.078,5.079,5.078H250.3
			c2.805,0,5.079-2.274,5.079-5.078V548.92C255.379,546.115,253.105,543.841,250.3,543.841z"></path>
		<path fill="#000000" d="M919.867,824.527c0-8.361-6.778-15.138-15.138-15.138h-16.472h-18.55h-87.63h-25.568h-18.297
			c-8.36,0-15.138,6.777-15.138,15.138v23.515v15.006v18.023c0,8.361,6.778,15.138,15.138,15.138h166.518
			c8.36,0,15.138-6.777,15.138-15.138v-18.023v-15.006V824.527z M884.429,845.08H756.294c-4.144,0-7.503-3.359-7.503-7.503
			s3.359-7.503,7.503-7.503h128.135c4.144,0,7.503,3.359,7.503,7.503S888.574,845.08,884.429,845.08z"></path>
		<path fill="#000000" d="M884.429,830.074H756.294c-4.144,0-7.503,3.359-7.503,7.503s3.359,7.503,7.503,7.503h128.135
			c4.144,0,7.503-3.359,7.503-7.503S888.574,830.074,884.429,830.074z"></path>
	</g>
</g>
</svg>