<svg fill="#000000" version="1.1" viewBox="144 144 512 512" xmlns="http://www.w3.org/2000/svg">
    <g id="SVGRepo_bgCarrier" stroke-width="0"></g>
    <g id="SVGRepo_tracerCarrier" stroke-linecap="round" stroke-linejoin="round"></g>
    <g id="SVGRepo_iconCarrier">
        <g><path d="m596.8 179.58h-393.6c-17.363 0-31.488 14.125-31.488 31.488v314.88c0 17.363 14.125 31.488 31.488 31.488h138.8l-4.293 47.23h-24.301c-4.3477 0-7.8711 3.5234-7.8711 7.8711 0 4.3477 3.5234 7.8711 7.8711 7.8711h173.18c4.3477 0 7.8711-3.5234 7.8711-7.8711 0-4.3477-3.5234-7.8711-7.8711-7.8711h-24.301l-4.293-47.23h138.8c17.363 0 31.488-14.125 31.488-31.488v-314.88c0-17.363-14.125-31.488-31.488-31.488zm-393.6 15.742h393.6c8.6797 0 15.742 7.0625 15.742 15.742v267.65h-425.09v-220.42h401.47c4.3477 0 7.8711-3.5234 7.8711-7.8711 0-4.3477-3.5234-7.8711-7.8711-7.8711h-401.47v-31.488c0-8.6797 7.0625-15.742 15.742-15.742zm243.29 409.34h-92.969l4.293-47.23h84.383zm150.32-62.977h-147.31-0.046875l-246.24 0.003906c-8.6797 0-15.742-7.0625-15.742-15.742v-31.488l425.09-0.003906v31.488c0 8.6797-7.0625 15.742-15.742 15.742z"></path>
            <path d="m250.43 439.36c0 4.3477-3.5234 7.8711-7.8711 7.8711s-7.8711-3.5234-7.8711-7.8711 3.5234-7.8711 7.8711-7.8711 7.8711 3.5234 7.8711 7.8711"></path>
            <path d="m218.94 218.94c0 4.3477-3.5234 7.8711-7.8711 7.8711-4.3477 0-7.8711-3.5234-7.8711-7.8711s3.5234-7.8711 7.8711-7.8711c4.3477 0 7.8711 3.5234 7.8711 7.8711"></path>
            <path d="m250.43 218.94c0 4.3477-3.5234 7.8711-7.8711 7.8711s-7.8711-3.5234-7.8711-7.8711 3.5234-7.8711 7.8711-7.8711 7.8711 3.5234 7.8711 7.8711"></path>
            <path d="m281.92 218.94c0 4.3477-3.5234 7.8711-7.8711 7.8711s-7.8711-3.5234-7.8711-7.8711 3.5234-7.8711 7.8711-7.8711 7.8711 3.5234 7.8711 7.8711"></path>
            <path d="m230.07 360.64 18.051-18.051c3.0742-3.0742 3.0742-8.0586 0-11.133s-8.0586-3.0742-11.133 0l-23.617 23.617c-3.0742 3.0742-3.0742 8.0586 0 11.133l23.617 23.617c1.5352 1.5352 3.5508 2.3047 5.5664 2.3047s4.0312-0.76953 5.5664-2.3047c3.0742-3.0742 3.0742-8.0586 0-11.133z"></path>
            <path d="m274.05 384.25c2.0156 0 4.0312-0.76953 5.5664-2.3047 3.0742-3.0742 3.0742-8.0586 0-11.133l-10.176-10.176 10.18-10.176c3.0742-3.0742 3.0742-8.0586 0-11.133-3.0742-3.0742-8.0586-3.0742-11.133 0l-15.742 15.742c-3.0742 3.0742-3.0742 8.0586 0 11.133l15.742 15.742c1.5352 1.5352 3.5508 2.3047 5.5664 2.3047z"></path>
            <path d="m563 331.46c-3.0742-3.0742-8.0586-3.0742-11.133 0-3.0742 3.0742-3.0742 8.0586 0 11.133l18.051 18.051-18.051 18.051c-3.0742 3.0742-3.0742 8.0586 0 11.133 1.5352 1.5352 3.5508 2.3047 5.5664 2.3047s4.0312-0.76953 5.5664-2.3047l23.617-23.617c3.0742-3.0742 3.0742-8.0586 0-11.133z"></path>
            <path d="m520.38 381.95c1.5352 1.5352 3.5508 2.3047 5.5664 2.3047s4.0312-0.76953 5.5664-2.3047l15.746-15.746c3.0742-3.0742 3.0742-8.0586 0-11.133l-15.742-15.742c-3.0742-3.0742-8.0586-3.0742-11.133 0s-3.0742 8.0586 0 11.133l10.18 10.176-10.18 10.18c-3.0742 3.0742-3.0742 8.0586 0 11.133z"></path>
            <path d="m557.44 431.49h-283.39c-4.3477 0-7.8711 3.5234-7.8711 7.8711s3.5234 7.8711 7.8711 7.8711h283.39c4.3477 0 7.8711-3.5234 7.8711-7.8711s-3.5234-7.8711-7.8711-7.8711z"></path> </g> </g>
            <path d="m337.86 348.41c1.75 3.5039 5.8086 5.1875 9.5312 3.9492l13.254-4.418v52.055c0 4.3477 3.5234 7.8711 7.8711 7.8711h62.977c4.3477 0 7.8711-3.5234 7.8711-7.8711v-52.055l13.254 4.418c3.7148 1.2383 7.7773-0.44531 9.5312-3.9492l15.742-31.488c1.9453-3.8906 0.36719-8.6172-3.5195-10.562l-47.23-23.617c-2.5273-1.2656-5.5391-1.0742-7.8867 0.49219l-19.25 12.832-19.25-12.832c-2.3516-1.5664-5.3594-1.7539-7.8867-0.49219l-47.23 23.617c-3.8867 1.9453-5.4648 6.6719-3.5195 10.562zm37.961-49.543 19.816 13.211c2.6445 1.7617 6.0898 1.7617 8.7344 0l19.816-13.211 36.105 18.055-9.1719 18.34-17.137-5.7148c-2.4023-0.80078-5.0391-0.39844-7.0938 1.082-2.0508 1.4805-3.2695 3.8555-3.2695 6.3867v55.105h-47.23v-55.105c0-2.5312-1.2148-4.9062-3.2695-6.3867-2.0508-1.4766-4.6914-1.8828-7.0938-1.082l-17.137 5.7148-9.1719-18.34 36.105-18.055z"></path>
</svg>